<svg width="554" height="712" viewBox="0 0 554 712" fill="none" xmlns="http://www.w3.org/2000/svg">
<path d="M10 711.999C4.47715 711.999 0 707.521 0 701.999V11.0611C0 5.53823 4.47715 1.06109 10 1.06109H163.34C168.863 1.06109 173.34 5.53824 173.34 11.0611V267.174L360.29 5.25153C362.167 2.62192 365.199 1.06109 368.43 1.06109H520.262C528.551 1.06109 533.241 10.5664 528.198 17.1449L173.34 480.065V701.999C173.34 707.521 168.863 711.999 163.34 711.999H10ZM373.946 711.999C370.369 711.999 367.064 710.088 365.279 706.988L173.34 373.62L215.79 220.598C218.081 212.342 229.016 210.601 233.757 217.739L551.696 696.466C556.11 703.113 551.345 711.999 543.366 711.999H373.946Z" fill="#DFEBFF"/>
<path d="M173.34 267.174L359.781 4.21618C361.656 1.57156 364.697 2.15954e-05 367.939 5.7936e-05L521.242 0.00177642C529.529 0.00186931 534.22 9.50291 529.181 16.082L175.38 478.055C174.9 478.682 174.347 479.25 173.733 479.747L173.34 480.065V373.62V267.174Z" fill="#9FBBEE"/>
</svg>
