<svg width="981" height="254" viewBox="0 0 981 254" fill="none" xmlns="http://www.w3.org/2000/svg">
<path d="M10 251.061C4.47716 251.061 0 246.584 0 241.061V10.3742C0 4.85132 4.47715 0.374155 10 0.374155H51.0749C56.5977 0.374155 61.0749 4.85131 61.0749 10.3742V94.2097L125.008 4.56758C126.885 1.93623 129.918 0.374155 133.15 0.374155H170.194C178.481 0.374155 183.172 9.87597 178.133 16.455L61.0749 169.278V241.061C61.0749 246.584 56.5977 251.061 51.0749 251.061H10ZM135.503 251.061C131.925 251.061 128.62 249.15 126.835 246.048L61.0749 131.744L72.2411 91.4618C74.5306 83.2021 85.4705 81.462 90.2099 88.6036L187.715 235.532C192.126 242.179 187.36 251.061 179.382 251.061H135.503Z" fill="#DFEBFF"/>
<path d="M61.0749 94.2097L124.83 4.21917C126.705 1.57281 129.747 2.16236e-05 132.99 5.80069e-05L170.547 0.000479339C178.832 0.000572285 183.524 9.49813 178.489 16.0777L61.902 168.428C61.6608 168.743 61.3832 169.028 61.0749 169.278V131.744V94.2097Z" fill="#9FBBEE"/>
<path d="M851.59 147.955C848.997 141.392 853.834 134.281 860.89 134.281H881.644C885.892 134.281 889.676 136.965 891.081 140.974L910.584 196.632C911.266 198.676 911.947 200.721 912.629 202.765C913.267 204.68 913.756 206.259 914.095 207.501C914.135 207.647 914.267 207.748 914.417 207.748C914.568 207.748 914.7 207.647 914.739 207.501C915.073 206.259 915.52 204.68 916.078 202.765C916.76 200.721 917.441 198.676 918.123 196.632L938.468 140.855C939.907 136.907 943.661 134.281 947.862 134.281H965.734C972.766 134.281 977.601 141.347 975.055 147.902L937.466 244.682C935.972 248.528 932.27 251.062 928.144 251.062H899.115C895.01 251.062 891.323 248.553 889.815 244.735L851.59 147.955Z" fill="#DFEBFF"/>
<path d="M718.037 194.204V190.116C718.037 171.973 723.957 157.535 735.797 146.802C747.637 136.07 763.565 130.704 783.583 130.704C803.174 130.704 818.25 135.9 828.813 146.291C839.375 156.598 844.656 170.78 844.656 188.838V190.337C844.656 195.86 840.179 200.337 834.656 200.337H750.908C745.385 200.337 740.908 195.86 740.908 190.337V189C740.908 183.477 745.385 179 750.908 179H801.598C802.021 179 802.364 178.657 802.364 178.233C802.364 173.123 800.789 168.906 797.637 165.584C794.571 162.262 789.758 160.601 783.199 160.601C776.129 160.601 770.763 163.072 767.1 168.012C763.523 172.952 761.734 178.745 761.734 185.388V194.46C761.734 203.915 763.693 211.198 767.611 216.308C771.615 221.334 777.279 223.847 784.605 223.847C790.141 223.847 794.698 222.782 798.276 220.653C799.637 219.83 800.88 218.895 802.005 217.849C805.39 214.703 809.874 212.343 814.367 213.423L833.011 217.908C838.811 219.303 842.191 225.526 838.977 230.552C835.21 236.442 830.246 241.319 824.085 245.184C814.715 251.061 801.683 254 784.988 254C763.693 254 747.211 248.676 735.542 238.029C723.872 227.382 718.037 212.773 718.037 194.204Z" fill="#DFEBFF"/>
<path d="M572.381 194.588V190.499C572.381 173.463 576.939 159.409 586.053 148.336C595.167 137.262 607.134 131.726 621.956 131.726C631.155 131.726 638.906 133.174 645.209 136.07C650.628 138.559 659.903 134.668 659.903 128.706V75.0308C659.903 69.5079 664.38 65.0308 669.903 65.0308H692.705C698.228 65.0308 702.705 69.5079 702.705 75.0308V241.061C702.705 246.584 698.228 251.061 692.705 251.061H669.038C664.335 251.061 660.513 247.268 660.478 242.565L660.414 234.151C660.414 234.105 660.377 234.068 660.331 234.068C660.303 234.068 660.277 234.082 660.261 234.106C656.77 239.456 651.796 244.043 645.337 247.867C638.864 251.7 631.07 253.617 621.956 253.617C606.709 253.617 594.613 248.038 585.669 236.879C576.811 225.721 572.381 211.624 572.381 194.588ZM616.717 193.949C616.717 202.808 618.463 210.048 621.956 215.67C625.533 221.291 631.07 224.102 638.565 224.102C643.591 224.102 647.85 222.612 651.342 219.63C654.342 217.131 656.623 214.361 658.186 211.322C658.78 210.167 659.008 208.869 659.008 207.57V176.878C659.008 175.579 658.782 174.28 658.18 173.129C656.618 170.14 654.339 167.54 651.342 165.329C647.85 162.603 643.591 161.24 638.565 161.24C630.985 161.24 625.448 164.051 621.956 169.673C618.463 175.295 616.717 182.492 616.717 191.266V193.949Z" fill="#DFEBFF"/>
<path d="M505.559 230.235C505.559 223.676 507.645 218.182 511.819 213.753C516.078 209.324 522.168 207.109 530.09 207.109C537.927 207.109 543.974 209.324 548.233 213.753C552.492 218.182 554.622 223.676 554.622 230.235C554.622 236.879 552.492 242.416 548.233 246.845C543.974 251.274 537.927 253.489 530.09 253.489C522.168 253.489 516.078 251.232 511.819 246.717C507.645 242.203 505.559 236.709 505.559 230.235Z" fill="#DFEBFF"/>
<path d="M361.564 194.204V190.116C361.564 171.973 367.484 157.535 379.324 146.802C391.163 136.07 407.092 130.704 427.109 130.704C446.7 130.704 461.777 135.9 472.339 146.291C482.901 156.598 488.182 170.78 488.182 188.838V190.337C488.182 195.86 483.705 200.337 478.182 200.337H394.434C388.911 200.337 384.434 195.86 384.434 190.337V189C384.434 183.477 388.911 179 394.434 179H445.124C445.548 179 445.891 178.657 445.891 178.233C445.891 173.123 444.315 168.906 441.163 165.584C438.097 162.262 433.284 160.601 426.726 160.601C419.656 160.601 414.289 163.072 410.627 168.012C407.049 172.952 405.26 178.745 405.26 185.388V194.46C405.26 203.915 407.22 211.198 411.138 216.308C415.141 221.334 420.806 223.847 428.131 223.847C433.668 223.847 438.225 222.782 441.802 220.653C443.163 219.83 444.406 218.895 445.532 217.849C448.916 214.703 453.401 212.343 457.893 213.423L476.537 217.908C482.338 219.303 485.718 225.526 482.503 230.552C478.736 236.442 473.772 241.319 467.611 245.184C458.242 251.061 445.209 254 428.514 254C407.22 254 390.737 248.676 379.068 238.029C367.398 227.382 361.564 212.773 361.564 194.204Z" fill="#DFEBFF"/>
<path d="M275.993 165.712C270.47 165.712 265.993 161.235 265.993 155.712V144.281C265.993 138.758 270.47 134.281 275.993 134.281H343.003C348.526 134.281 353.003 138.758 353.003 144.281V155.712C353.003 161.235 348.526 165.712 343.003 165.712H275.993ZM284.264 214.264V140.597C284.264 139.986 284.492 139.397 284.903 138.944C285.314 138.492 285.541 137.903 285.541 137.292V104.928C285.541 99.4054 290.019 94.9282 295.541 94.9282H317.322C322.845 94.9282 327.322 99.4054 327.322 104.928V202.892C327.322 211.496 328.386 216.99 330.516 219.375C332.645 221.76 336.138 222.952 340.993 222.952C343.293 222.952 345.422 222.824 347.381 222.569C350.298 222.083 353.259 224.162 353.259 227.118V242.927C353.259 247.309 350.389 251.15 346.067 251.863C344.824 252.068 343.473 252.269 342.015 252.467C336.99 253.233 330.601 253.616 322.85 253.616C310.329 253.616 300.746 250.55 294.102 244.417C287.543 238.199 284.264 228.148 284.264 214.264Z" fill="#DFEBFF"/>
<path d="M218.881 251.062C213.358 251.062 208.881 246.584 208.881 241.062V144.281C208.881 138.758 213.358 134.281 218.881 134.281H243.599C249.122 134.281 253.599 138.758 253.599 144.281V241.062C253.599 246.584 249.122 251.062 243.599 251.062H218.881ZM206.708 92.7566C206.708 86.5385 208.838 81.3 213.097 77.0411C217.356 72.697 223.446 70.5249 231.368 70.5249C239.289 70.5249 245.337 72.6544 249.511 76.9133C253.685 81.0871 255.772 86.3682 255.772 92.7566C255.772 98.8895 253.599 104.171 249.255 108.6C244.996 113.029 238.906 115.244 230.984 115.244C223.148 115.244 217.143 113.029 212.969 108.6C208.795 104.171 206.708 98.8895 206.708 92.7566Z" fill="#DFEBFF"/>
</svg>
